<?xml version="1.0" encoding="UTF-8"?>
<svg xmlns="http://www.w3.org/2000/svg" xmlns:xlink="http://www.w3.org/1999/xlink" width="432pt" height="266pt" viewBox="0 0 432 266" version="1.1">
<defs>
<clipPath id="clip1">
  <path d="M 59.039063 187 L 401.757813 187 L 401.757813 188 L 59.039063 188 Z M 59.039063 187 "/>
</clipPath>
</defs>
<g id="surface379">
<rect x="0" y="0" width="432" height="266" style="fill:rgb(100%,100%,100%);fill-opacity:1;stroke:none;"/>
<path style="fill:none;stroke-width:0.75;stroke-linecap:round;stroke-linejoin:round;stroke:rgb(0%,0%,0%);stroke-opacity:1;stroke-miterlimit:10;" d="M 71.734375 187.613281 L 72.976563 187.566406 L 73.597656 187.539063 L 74.839844 187.476563 L 76.082031 187.40625 L 77.324219 187.320313 L 77.945313 187.273438 L 78.5625 187.222656 L 79.183594 187.171875 L 79.804688 187.113281 L 80.425781 187.050781 L 81.046875 186.984375 L 81.667969 186.914063 L 82.289063 186.835938 L 82.910156 186.753906 L 83.53125 186.667969 L 84.152344 186.574219 L 84.773438 186.476563 L 85.394531 186.367188 L 86.015625 186.253906 L 86.636719 186.136719 L 87.257813 186.007813 L 87.878906 185.875 L 88.5 185.730469 L 89.121094 185.578125 L 89.742188 185.417969 L 90.363281 185.25 L 90.984375 185.066406 L 91.605469 184.875 L 92.226563 184.675781 L 92.847656 184.464844 L 93.46875 184.242188 L 94.089844 184.007813 L 94.710938 183.757813 L 95.332031 183.5 L 95.953125 183.226563 L 96.574219 182.9375 L 97.195313 182.640625 L 97.816406 182.324219 L 98.4375 181.992188 L 99.058594 181.652344 L 99.679688 181.289063 L 100.300781 180.914063 L 100.921875 180.527344 L 101.542969 180.113281 L 102.164063 179.6875 L 102.785156 179.246094 L 103.40625 178.785156 L 104.027344 178.304688 L 104.648438 177.8125 L 105.269531 177.292969 L 105.886719 176.761719 L 106.507813 176.210938 L 107.128906 175.632813 L 107.75 175.046875 L 108.371094 174.433594 L 108.992188 173.804688 L 109.613281 173.15625 L 110.234375 172.484375 L 110.855469 171.792969 L 111.476563 171.089844 L 112.097656 170.359375 L 112.71875 169.609375 L 113.339844 168.847656 L 113.960938 168.054688 L 114.582031 167.25 L 115.203125 166.425781 L 115.824219 165.578125 L 116.445313 164.71875 L 117.066406 163.839844 L 117.6875 162.9375 L 118.308594 162.023438 L 118.929688 161.089844 L 119.550781 160.136719 L 120.171875 159.175781 L 120.792969 158.191406 L 121.414063 157.195313 L 122.035156 156.1875 L 122.65625 155.160156 L 123.277344 154.121094 L 123.898438 153.074219 L 124.519531 152.007813 L 125.140625 150.9375 L 125.761719 149.855469 L 126.382813 148.757813 L 127.003906 147.65625 L 127.625 146.546875 L 128.246094 145.429688 L 128.867188 144.304688 L 129.488281 143.175781 L 130.730469 140.902344 L 131.972656 138.613281 L 132.589844 137.46875 L 133.832031 135.179688 L 134.453125 134.03125 L 135.695313 131.75 L 136.316406 130.613281 L 136.9375 129.480469 L 137.558594 128.355469 L 138.179688 127.234375 L 138.800781 126.121094 L 139.421875 125.011719 L 140.042969 123.910156 L 140.664063 122.820313 L 141.285156 121.738281 L 141.90625 120.667969 L 142.527344 119.605469 L 143.148438 118.554688 L 143.769531 117.515625 L 144.390625 116.492188 L 145.011719 115.472656 L 145.632813 114.472656 L 146.253906 113.484375 L 146.875 112.503906 L 147.496094 111.542969 L 148.117188 110.597656 L 148.738281 109.660156 L 149.359375 108.742188 L 149.980469 107.839844 L 150.601563 106.945313 L 151.222656 106.074219 L 151.84375 105.210938 L 152.464844 104.363281 L 153.085938 103.535156 L 153.707031 102.71875 L 154.328125 101.914063 L 154.949219 101.128906 L 155.570313 100.355469 L 156.191406 99.597656 L 156.8125 98.855469 L 157.433594 98.125 L 158.054688 97.40625 L 158.675781 96.707031 L 159.296875 96.015625 L 159.914063 95.339844 L 160.535156 94.679688 L 161.15625 94.027344 L 161.777344 93.390625 L 162.398438 92.765625 L 163.019531 92.148438 L 163.640625 91.546875 L 164.261719 90.957031 L 164.882813 90.371094 L 165.503906 89.804688 L 166.125 89.242188 L 166.746094 88.691406 L 167.367188 88.152344 L 167.988281 87.621094 L 168.609375 87.097656 L 169.230469 86.582031 L 169.851563 86.078125 L 170.472656 85.578125 L 171.09375 85.089844 L 171.714844 84.605469 L 172.335938 84.132813 L 172.957031 83.664063 L 173.578125 83.199219 L 174.199219 82.746094 L 175.441406 81.855469 L 176.0625 81.421875 L 176.683594 80.992188 L 177.304688 80.566406 L 177.925781 80.148438 L 179.167969 79.328125 L 180.410156 78.53125 L 181.03125 78.140625 L 181.652344 77.753906 L 182.273438 77.371094 L 182.894531 76.996094 L 183.515625 76.625 L 184.136719 76.257813 L 184.757813 75.898438 L 185.378906 75.542969 L 186 75.191406 L 186.621094 74.847656 L 187.238281 74.507813 L 187.859375 74.171875 L 188.480469 73.839844 L 189.101563 73.515625 L 189.722656 73.195313 L 190.34375 72.882813 L 190.964844 72.574219 L 191.585938 72.273438 L 192.207031 71.976563 L 192.828125 71.683594 L 193.449219 71.394531 L 194.691406 70.839844 L 195.3125 70.570313 L 195.933594 70.308594 L 196.554688 70.050781 L 197.175781 69.796875 L 197.796875 69.550781 L 198.417969 69.3125 L 199.039063 69.078125 L 200.28125 68.625 L 200.902344 68.410156 L 201.523438 68.199219 L 202.144531 67.996094 L 202.765625 67.796875 L 203.386719 67.605469 L 204.007813 67.417969 L 204.628906 67.238281 L 205.25 67.0625 L 205.871094 66.894531 L 206.492188 66.730469 L 207.113281 66.570313 L 207.734375 66.417969 L 208.976563 66.128906 L 210.21875 65.863281 L 210.839844 65.738281 L 211.460938 65.617188 L 212.703125 65.390625 L 213.945313 65.1875 L 214.5625 65.089844 L 215.183594 65 L 215.804688 64.914063 L 216.425781 64.832031 L 217.046875 64.753906 L 217.667969 64.679688 L 218.289063 64.609375 L 219.53125 64.484375 L 220.152344 64.425781 L 220.773438 64.371094 L 221.394531 64.320313 L 222.636719 64.234375 L 223.257813 64.195313 L 223.878906 64.160156 L 225.121094 64.097656 L 226.363281 64.050781 L 226.984375 64.03125 L 227.605469 64.015625 L 228.226563 64.003906 L 229.46875 63.988281 L 230.089844 63.984375 L 230.710938 63.984375 L 231.332031 63.988281 L 232.574219 64.003906 L 233.195313 64.015625 L 233.816406 64.03125 L 234.4375 64.050781 L 235.679688 64.097656 L 236.921875 64.160156 L 237.542969 64.195313 L 238.164063 64.234375 L 239.40625 64.320313 L 240.027344 64.371094 L 240.648438 64.425781 L 241.269531 64.484375 L 241.886719 64.546875 L 242.507813 64.609375 L 243.128906 64.679688 L 243.75 64.753906 L 244.371094 64.832031 L 244.992188 64.914063 L 245.613281 65 L 246.234375 65.089844 L 246.855469 65.1875 L 248.097656 65.390625 L 249.339844 65.617188 L 249.960938 65.738281 L 250.582031 65.863281 L 251.824219 66.128906 L 253.066406 66.417969 L 253.6875 66.570313 L 254.308594 66.730469 L 254.929688 66.894531 L 255.550781 67.0625 L 256.171875 67.238281 L 256.792969 67.417969 L 257.414063 67.605469 L 258.035156 67.796875 L 258.65625 67.996094 L 259.277344 68.199219 L 259.898438 68.410156 L 260.519531 68.625 L 261.761719 69.078125 L 262.382813 69.3125 L 263.003906 69.550781 L 263.625 69.796875 L 264.246094 70.050781 L 264.867188 70.308594 L 265.488281 70.570313 L 266.109375 70.839844 L 267.351563 71.394531 L 267.972656 71.683594 L 268.589844 71.976563 L 269.210938 72.273438 L 269.832031 72.574219 L 270.453125 72.882813 L 271.074219 73.195313 L 271.695313 73.515625 L 272.316406 73.839844 L 272.9375 74.171875 L 273.558594 74.507813 L 274.179688 74.847656 L 274.800781 75.191406 L 275.421875 75.542969 L 276.042969 75.898438 L 276.664063 76.257813 L 277.285156 76.625 L 277.90625 76.996094 L 278.527344 77.371094 L 279.148438 77.753906 L 279.769531 78.140625 L 280.390625 78.53125 L 281.632813 79.328125 L 282.875 80.148438 L 283.496094 80.566406 L 284.117188 80.992188 L 284.738281 81.421875 L 285.359375 81.855469 L 286.601563 82.746094 L 287.222656 83.199219 L 287.84375 83.664063 L 288.464844 84.132813 L 289.085938 84.605469 L 289.707031 85.089844 L 290.328125 85.578125 L 290.949219 86.078125 L 291.570313 86.582031 L 292.191406 87.097656 L 292.8125 87.621094 L 293.433594 88.152344 L 294.054688 88.691406 L 294.675781 89.242188 L 295.296875 89.804688 L 295.914063 90.371094 L 296.535156 90.957031 L 297.15625 91.546875 L 297.777344 92.148438 L 298.398438 92.765625 L 299.019531 93.390625 L 299.640625 94.027344 L 300.261719 94.679688 L 300.882813 95.339844 L 301.503906 96.015625 L 302.125 96.707031 L 302.746094 97.40625 L 303.367188 98.125 L 303.988281 98.855469 L 304.609375 99.597656 L 305.230469 100.355469 L 305.851563 101.128906 L 306.472656 101.914063 L 307.09375 102.71875 L 307.714844 103.535156 L 308.335938 104.363281 L 308.957031 105.210938 L 309.578125 106.074219 L 310.199219 106.945313 L 310.820313 107.839844 L 311.441406 108.742188 L 312.0625 109.660156 L 312.683594 110.597656 L 313.304688 111.542969 L 313.925781 112.503906 L 314.546875 113.484375 L 315.167969 114.472656 L 315.789063 115.472656 L 316.410156 116.492188 L 317.03125 117.515625 L 317.652344 118.554688 L 318.273438 119.605469 L 318.894531 120.667969 L 319.515625 121.738281 L 320.136719 122.820313 L 320.757813 123.910156 L 321.378906 125.011719 L 322 126.121094 L 322.621094 127.234375 L 323.238281 128.355469 L 323.859375 129.480469 L 324.480469 130.613281 L 325.101563 131.75 L 326.34375 134.03125 L 326.964844 135.179688 L 330.070313 140.902344 L 331.3125 143.175781 L 331.933594 144.304688 L 332.554688 145.429688 L 333.175781 146.546875 L 333.796875 147.65625 L 334.417969 148.757813 L 335.039063 149.855469 L 335.660156 150.9375 L 336.28125 152.007813 L 336.902344 153.074219 L 337.523438 154.121094 L 338.144531 155.160156 L 338.765625 156.1875 L 339.386719 157.195313 L 340.007813 158.191406 L 340.628906 159.175781 L 341.25 160.136719 L 341.871094 161.089844 L 342.492188 162.023438 L 343.113281 162.9375 L 343.734375 163.839844 L 344.355469 164.71875 L 344.976563 165.578125 L 345.597656 166.425781 L 346.21875 167.25 L 346.839844 168.054688 L 347.460938 168.847656 L 348.082031 169.609375 L 348.703125 170.359375 L 349.324219 171.089844 L 349.945313 171.792969 L 350.5625 172.484375 L 351.183594 173.15625 L 351.804688 173.804688 L 352.425781 174.433594 L 353.046875 175.046875 L 353.667969 175.632813 L 354.289063 176.210938 L 354.910156 176.761719 L 355.53125 177.292969 L 356.152344 177.8125 L 356.773438 178.304688 L 357.394531 178.785156 L 358.015625 179.246094 L 358.636719 179.6875 L 359.257813 180.113281 L 359.878906 180.527344 L 360.5 180.914063 L 361.121094 181.289063 L 361.742188 181.652344 L 362.363281 181.992188 L 362.984375 182.324219 L 363.605469 182.640625 L 364.226563 182.9375 L 364.847656 183.226563 L 365.46875 183.5 L 366.089844 183.757813 L 366.710938 184.007813 L 367.332031 184.242188 L 367.953125 184.464844 L 368.574219 184.675781 L 369.195313 184.875 L 369.816406 185.066406 L 370.4375 185.25 L 371.058594 185.417969 L 371.679688 185.578125 L 372.300781 185.730469 L 372.921875 185.875 L 373.542969 186.007813 L 374.164063 186.136719 L 374.785156 186.253906 L 375.40625 186.367188 L 376.027344 186.476563 L 376.648438 186.574219 L 377.269531 186.667969 L 377.886719 186.753906 L 378.507813 186.835938 L 379.128906 186.914063 L 379.75 186.984375 L 380.371094 187.050781 L 380.992188 187.113281 L 381.613281 187.171875 L 382.855469 187.273438 L 383.476563 187.320313 L 384.71875 187.40625 L 385.960938 187.476563 L 387.203125 187.539063 L 387.824219 187.566406 L 389.066406 187.613281 "/>
<path style="fill:none;stroke-width:0.75;stroke-linecap:round;stroke-linejoin:round;stroke:rgb(0%,0%,0%);stroke-opacity:1;stroke-miterlimit:10;" d="M 59.039063 192.558594 L 401.761719 192.558594 L 401.761719 59.039063 L 59.039063 59.039063 Z M 59.039063 192.558594 "/>
<g clip-path="url(#clip1)" clip-rule="nonzero">
<path style="fill:none;stroke-width:0.075;stroke-linecap:round;stroke-linejoin:round;stroke:rgb(74.509804%,74.509804%,74.509804%);stroke-opacity:1;stroke-miterlimit:10;" d="M 59.039063 187.863281 L 401.761719 187.863281 "/>
</g>
</g>
</svg>
