<?xml version="1.0" encoding="UTF-8"?>
<svg xmlns="http://www.w3.org/2000/svg" xmlns:xlink="http://www.w3.org/1999/xlink" width="432pt" height="266pt" viewBox="0 0 432 266" version="1.1">
<defs>
<clipPath id="clip1">
  <path d="M 59.039063 187 L 401.757813 187 L 401.757813 188 L 59.039063 188 Z M 59.039063 187 "/>
</clipPath>
</defs>
<g id="surface384">
<rect x="0" y="0" width="432" height="266" style="fill:rgb(100%,100%,100%);fill-opacity:1;stroke:none;"/>
<path style="fill:none;stroke-width:0.75;stroke-linecap:round;stroke-linejoin:round;stroke:rgb(0%,0%,0%);stroke-opacity:1;stroke-miterlimit:10;" d="M 71.734375 187.613281 L 72.355469 187.601563 L 73.597656 187.5625 L 74.21875 187.539063 L 74.839844 187.511719 L 76.082031 187.441406 L 76.703125 187.398438 L 77.324219 187.347656 L 77.945313 187.292969 L 78.5625 187.230469 L 79.183594 187.15625 L 79.804688 187.078125 L 80.425781 186.988281 L 81.046875 186.886719 L 81.667969 186.777344 L 82.289063 186.65625 L 82.910156 186.527344 L 83.53125 186.382813 L 84.152344 186.226563 L 84.773438 186.058594 L 85.394531 185.878906 L 86.015625 185.691406 L 86.636719 185.488281 L 87.257813 185.273438 L 87.878906 185.050781 L 88.5 184.820313 L 89.121094 184.582031 L 89.742188 184.335938 L 90.363281 184.082031 L 92.847656 183.050781 L 93.46875 182.796875 L 94.089844 182.546875 L 94.710938 182.304688 L 95.332031 182.066406 L 95.953125 181.839844 L 96.574219 181.625 L 97.195313 181.425781 L 97.816406 181.238281 L 98.4375 181.0625 L 99.058594 180.898438 L 99.679688 180.753906 L 100.300781 180.625 L 100.921875 180.511719 L 101.542969 180.410156 L 102.164063 180.320313 L 102.785156 180.242188 L 103.40625 180.179688 L 104.027344 180.125 L 104.648438 180.082031 L 105.269531 180.042969 L 105.886719 180.011719 L 107.128906 179.957031 L 107.75 179.933594 L 108.371094 179.914063 L 108.992188 179.890625 L 109.613281 179.863281 L 110.234375 179.839844 L 111.476563 179.777344 L 112.097656 179.742188 L 113.339844 179.664063 L 115.203125 179.523438 L 115.824219 179.46875 L 116.445313 179.417969 L 117.066406 179.363281 L 119.550781 179.128906 L 120.171875 179.0625 L 120.792969 179 L 122.035156 178.859375 L 122.65625 178.785156 L 123.277344 178.703125 L 123.898438 178.617188 L 124.519531 178.527344 L 125.140625 178.433594 L 125.761719 178.328125 L 126.382813 178.21875 L 127.003906 178.105469 L 127.625 177.984375 L 128.246094 177.859375 L 129.488281 177.59375 L 130.109375 177.457031 L 130.730469 177.316406 L 131.972656 177.042969 L 132.589844 176.910156 L 133.210938 176.78125 L 133.832031 176.65625 L 134.453125 176.542969 L 135.074219 176.433594 L 135.695313 176.339844 L 136.316406 176.25 L 136.9375 176.175781 L 137.558594 176.109375 L 138.179688 176.054688 L 138.800781 176.011719 L 139.421875 175.976563 L 140.042969 175.953125 L 140.664063 175.933594 L 141.285156 175.925781 L 141.90625 175.921875 L 142.527344 175.921875 L 144.390625 175.933594 L 146.253906 175.933594 L 146.875 175.925781 L 147.496094 175.914063 L 148.738281 175.882813 L 149.980469 175.835938 L 153.085938 175.699219 L 153.707031 175.675781 L 154.328125 175.660156 L 155.570313 175.636719 L 156.191406 175.632813 L 156.8125 175.636719 L 157.433594 175.644531 L 158.054688 175.65625 L 158.675781 175.671875 L 159.296875 175.691406 L 159.914063 175.714844 L 161.777344 175.785156 L 162.398438 175.804688 L 163.019531 175.820313 L 163.640625 175.832031 L 164.261719 175.839844 L 164.882813 175.839844 L 165.503906 175.832031 L 166.125 175.820313 L 166.746094 175.800781 L 167.367188 175.773438 L 167.988281 175.738281 L 168.609375 175.699219 L 169.230469 175.65625 L 169.851563 175.605469 L 171.09375 175.496094 L 171.714844 175.433594 L 172.335938 175.375 L 172.957031 175.308594 L 173.578125 175.246094 L 174.199219 175.179688 L 175.441406 175.039063 L 176.0625 174.964844 L 176.683594 174.882813 L 177.304688 174.796875 L 177.925781 174.703125 L 178.546875 174.601563 L 179.167969 174.484375 L 179.789063 174.355469 L 180.410156 174.207031 L 181.03125 174.035156 L 181.652344 173.847656 L 182.273438 173.632813 L 182.894531 173.386719 L 183.515625 173.101563 L 184.136719 172.785156 L 184.757813 172.433594 L 185.378906 172.039063 L 186 171.589844 L 186.621094 171.089844 L 187.238281 170.53125 L 187.859375 169.917969 L 188.480469 169.242188 L 189.101563 168.496094 L 189.722656 167.660156 L 190.34375 166.746094 L 190.964844 165.75 L 191.585938 164.667969 L 192.207031 163.484375 L 192.828125 162.175781 L 193.449219 160.761719 L 194.070313 159.238281 L 194.691406 157.605469 L 195.3125 155.847656 L 195.933594 153.9375 L 196.554688 151.90625 L 197.175781 149.75 L 197.796875 147.480469 L 198.417969 145.089844 L 199.039063 142.554688 L 199.660156 139.914063 L 200.28125 137.179688 L 200.902344 134.359375 L 201.523438 131.460938 L 202.144531 128.492188 L 202.765625 125.480469 L 203.386719 122.445313 L 204.007813 119.402344 L 204.628906 116.363281 L 205.25 113.363281 L 205.871094 110.417969 L 206.492188 107.542969 L 207.113281 104.75 L 207.734375 102.054688 L 208.355469 99.488281 L 208.976563 97.070313 L 209.597656 94.785156 L 210.21875 92.640625 L 210.839844 90.640625 L 211.460938 88.804688 L 212.082031 87.136719 L 212.703125 85.605469 L 213.324219 84.207031 L 213.945313 82.925781 L 214.5625 81.765625 L 215.183594 80.722656 L 215.804688 79.753906 L 216.425781 78.855469 L 217.046875 78.003906 L 217.667969 77.195313 L 218.289063 76.417969 L 219.53125 74.878906 L 220.152344 74.105469 L 220.773438 73.324219 L 221.394531 72.523438 L 222.015625 71.714844 L 223.878906 69.253906 L 224.5 68.453125 L 225.121094 67.683594 L 225.742188 66.949219 L 226.363281 66.269531 L 226.984375 65.648438 L 227.605469 65.117188 L 228.226563 64.683594 L 228.847656 64.347656 L 229.46875 64.113281 L 230.089844 63.984375 L 230.710938 63.984375 L 231.332031 64.113281 L 231.953125 64.347656 L 232.574219 64.683594 L 233.195313 65.117188 L 233.816406 65.648438 L 234.4375 66.269531 L 235.058594 66.949219 L 235.679688 67.683594 L 236.300781 68.453125 L 236.921875 69.253906 L 238.785156 71.714844 L 239.40625 72.523438 L 240.027344 73.324219 L 240.648438 74.105469 L 241.269531 74.878906 L 241.886719 75.648438 L 242.507813 76.417969 L 243.128906 77.195313 L 243.75 78.003906 L 244.371094 78.855469 L 244.992188 79.753906 L 245.613281 80.722656 L 246.234375 81.765625 L 246.855469 82.925781 L 247.476563 84.207031 L 248.097656 85.605469 L 248.71875 87.136719 L 249.339844 88.804688 L 249.960938 90.640625 L 250.582031 92.640625 L 251.203125 94.785156 L 251.824219 97.070313 L 252.445313 99.488281 L 253.066406 102.054688 L 253.6875 104.75 L 254.308594 107.542969 L 254.929688 110.417969 L 255.550781 113.363281 L 256.171875 116.363281 L 256.792969 119.402344 L 257.414063 122.445313 L 258.035156 125.480469 L 258.65625 128.492188 L 259.277344 131.460938 L 259.898438 134.359375 L 260.519531 137.179688 L 261.140625 139.914063 L 261.761719 142.554688 L 262.382813 145.089844 L 263.003906 147.480469 L 263.625 149.75 L 264.246094 151.90625 L 264.867188 153.9375 L 265.488281 155.847656 L 266.109375 157.605469 L 266.730469 159.238281 L 267.351563 160.761719 L 267.972656 162.175781 L 268.589844 163.484375 L 269.210938 164.667969 L 269.832031 165.75 L 270.453125 166.746094 L 271.074219 167.660156 L 271.695313 168.496094 L 272.316406 169.242188 L 272.9375 169.917969 L 273.558594 170.53125 L 274.179688 171.089844 L 274.800781 171.589844 L 275.421875 172.039063 L 276.042969 172.433594 L 276.664063 172.785156 L 277.285156 173.101563 L 277.90625 173.386719 L 278.527344 173.632813 L 279.148438 173.847656 L 279.769531 174.035156 L 280.390625 174.207031 L 281.011719 174.355469 L 281.632813 174.484375 L 282.253906 174.601563 L 282.875 174.703125 L 283.496094 174.796875 L 284.117188 174.882813 L 284.738281 174.964844 L 285.359375 175.039063 L 286.601563 175.179688 L 287.222656 175.246094 L 287.84375 175.308594 L 288.464844 175.375 L 289.085938 175.433594 L 289.707031 175.496094 L 290.949219 175.605469 L 291.570313 175.65625 L 292.191406 175.699219 L 292.8125 175.738281 L 293.433594 175.773438 L 294.054688 175.800781 L 294.675781 175.820313 L 295.296875 175.832031 L 295.914063 175.839844 L 296.535156 175.839844 L 297.15625 175.832031 L 297.777344 175.820313 L 298.398438 175.804688 L 299.019531 175.785156 L 301.503906 175.691406 L 302.125 175.671875 L 302.746094 175.65625 L 303.367188 175.644531 L 303.988281 175.636719 L 304.609375 175.632813 L 305.230469 175.636719 L 306.472656 175.660156 L 307.09375 175.675781 L 307.714844 175.699219 L 310.820313 175.835938 L 312.0625 175.882813 L 313.304688 175.914063 L 313.925781 175.925781 L 314.546875 175.933594 L 316.410156 175.933594 L 318.273438 175.921875 L 318.894531 175.921875 L 319.515625 175.925781 L 320.136719 175.933594 L 320.757813 175.953125 L 321.378906 175.976563 L 322 176.011719 L 322.621094 176.054688 L 323.238281 176.109375 L 323.859375 176.175781 L 324.480469 176.25 L 325.101563 176.339844 L 325.722656 176.433594 L 326.34375 176.542969 L 326.964844 176.65625 L 327.585938 176.78125 L 328.207031 176.910156 L 328.828125 177.042969 L 330.070313 177.316406 L 330.691406 177.457031 L 331.3125 177.59375 L 332.554688 177.859375 L 333.175781 177.984375 L 333.796875 178.105469 L 334.417969 178.21875 L 335.039063 178.328125 L 335.660156 178.433594 L 336.28125 178.527344 L 336.902344 178.617188 L 337.523438 178.703125 L 338.144531 178.785156 L 338.765625 178.859375 L 340.007813 179 L 340.628906 179.0625 L 341.25 179.128906 L 343.734375 179.363281 L 344.355469 179.417969 L 344.976563 179.46875 L 345.597656 179.523438 L 347.460938 179.664063 L 348.703125 179.742188 L 349.324219 179.777344 L 349.945313 179.808594 L 350.5625 179.839844 L 351.183594 179.863281 L 351.804688 179.890625 L 352.425781 179.914063 L 353.046875 179.933594 L 353.667969 179.957031 L 354.910156 180.011719 L 355.53125 180.042969 L 356.152344 180.082031 L 356.773438 180.125 L 357.394531 180.179688 L 358.015625 180.242188 L 358.636719 180.320313 L 359.257813 180.410156 L 359.878906 180.511719 L 360.5 180.625 L 361.121094 180.753906 L 361.742188 180.898438 L 362.363281 181.0625 L 362.984375 181.238281 L 363.605469 181.425781 L 364.226563 181.625 L 364.847656 181.839844 L 365.46875 182.066406 L 366.089844 182.304688 L 366.710938 182.546875 L 367.332031 182.796875 L 367.953125 183.050781 L 370.4375 184.082031 L 371.058594 184.335938 L 371.679688 184.582031 L 372.300781 184.820313 L 372.921875 185.050781 L 373.542969 185.273438 L 374.164063 185.488281 L 374.785156 185.691406 L 375.40625 185.878906 L 376.027344 186.058594 L 376.648438 186.226563 L 377.269531 186.382813 L 377.886719 186.527344 L 378.507813 186.65625 L 379.128906 186.777344 L 379.75 186.886719 L 380.371094 186.988281 L 380.992188 187.078125 L 381.613281 187.15625 L 382.234375 187.230469 L 382.855469 187.292969 L 383.476563 187.347656 L 384.097656 187.398438 L 384.71875 187.441406 L 385.960938 187.511719 L 386.582031 187.539063 L 387.203125 187.5625 L 388.445313 187.601563 L 389.066406 187.613281 "/>
<path style="fill:none;stroke-width:0.75;stroke-linecap:round;stroke-linejoin:round;stroke:rgb(0%,0%,0%);stroke-opacity:1;stroke-miterlimit:10;" d="M 59.039063 192.558594 L 401.761719 192.558594 L 401.761719 59.039063 L 59.039063 59.039063 Z M 59.039063 192.558594 "/>
<g clip-path="url(#clip1)" clip-rule="nonzero">
<path style="fill:none;stroke-width:0.075;stroke-linecap:round;stroke-linejoin:round;stroke:rgb(74.509804%,74.509804%,74.509804%);stroke-opacity:1;stroke-miterlimit:10;" d="M 59.039063 187.683594 L 401.761719 187.683594 "/>
</g>
</g>
</svg>
